<svg width="92" height="92" viewBox="0 0 92 92" fill="none" xmlns="http://www.w3.org/2000/svg">
<g opacity="0.6" clip-path="url(#clip0_122_3)">
<path fill-rule="evenodd" clip-rule="evenodd" d="M18.0903 47.3498C17.857 52.0556 19.8234 57.078 24.5509 62.1476C30.4689 68.4939 36.6367 71.4523 42.6796 71.5878C48.7294 71.7169 55.2128 69.0229 61.7662 62.9117C68.3197 56.8006 71.4625 50.5243 71.7494 44.4735C72.0389 38.4392 69.518 32.0801 63.6 25.7338C63.0751 25.1709 62.7953 24.4226 62.8222 23.6535C62.849 22.8844 63.1803 22.1574 63.7432 21.6325C64.306 21.1077 65.0543 20.8279 65.8235 20.8547C66.5926 20.8816 67.3196 21.2129 67.8444 21.7757C74.5192 28.9336 77.9322 36.7463 77.5508 44.7516C77.1635 52.7371 73.0247 60.3484 65.7243 67.1562C58.4238 73.964 50.5454 77.5652 42.5493 77.3911C34.5434 77.2133 26.9781 73.2601 20.3096 66.109C14.8254 60.2279 11.9703 53.7487 12.2889 47.0716C12.6102 40.411 16.0625 34.1127 22.0557 28.5239C28.0523 22.932 34.5727 19.9306 41.2395 20.0747C47.9192 20.2258 54.1868 23.5228 59.6711 29.4039C63.9552 33.9981 66.2432 39.127 65.9844 44.466C65.7328 49.792 62.9738 54.7644 58.2981 59.1246C53.6224 63.4847 48.4663 65.8933 43.1356 65.7728C37.7917 65.6585 32.8348 63.0183 28.5507 58.4241C25.4951 55.1474 23.7863 51.402 23.9806 47.4372C24.1678 43.4853 26.2125 39.8709 29.5334 36.7742C32.8542 33.6774 36.609 31.8901 40.5611 31.9756C44.533 32.0617 48.1469 34.0242 51.1993 37.2975C53.0644 39.2975 54.2058 41.6993 54.0809 44.3361C53.9532 46.9563 52.5982 49.2611 50.5914 51.1324C48.5846 53.0038 46.1876 54.1979 43.5682 54.1393C40.9257 54.0832 38.6128 52.7738 36.7478 50.7738C36.2229 50.211 35.9431 49.4627 35.97 48.6935C35.9969 47.9244 36.3282 47.1975 36.891 46.6726C37.4539 46.1477 38.2022 45.8679 38.9713 45.8948C39.7404 45.9217 40.4674 46.253 40.9923 46.8158C42.1005 48.0043 43.0191 48.3221 43.692 48.3358C44.3812 48.3533 45.377 48.0595 46.6334 46.888C47.8897 45.7164 48.2522 44.7435 48.2828 44.0548C48.3193 43.3859 48.06 42.4406 46.9549 41.2556C44.6592 38.7938 42.4365 37.8194 40.4341 37.7757C38.4187 37.7316 36.0587 38.6183 33.4882 41.0153C30.9212 43.4091 29.872 45.7015 29.7754 47.7151C29.6761 49.7122 30.4931 51.9975 32.792 54.4627C36.3225 58.2488 39.8916 59.8976 43.2626 59.9727C46.6568 60.0452 50.4148 58.5405 54.3401 54.8801C58.2654 51.2197 60.0286 47.5758 60.1896 44.1881C60.3533 40.8168 58.954 37.1446 55.4266 33.3619C50.6991 28.2923 45.8261 25.9803 41.1157 25.8783C36.3856 25.7755 31.2565 27.8795 26.0171 32.7652C20.771 37.6574 18.3144 42.6272 18.0903 47.3498Z" fill="#C5B8FE"/>
</g>
<defs>
<clipPath id="clip0_122_3">
<rect width="65" height="65" fill="white" transform="translate(0 44.3299) rotate(-43)"/>
</clipPath>
</defs>
</svg>
